<svg xmlns="http://www.w3.org/2000/svg" width="860" height="220" viewBox="0 0 860 220">
<defs><linearGradient id="line" x1="0" y1="0" x2="1" y2="0"><stop stop-color="#2563eb"/><stop offset="1" stop-color="#60a5fa"/></linearGradient></defs>
<rect x="1" y="1" width="858" height="218" rx="18" fill="#05070b" stroke="#1d2a42"/>
<rect x="1" y="1" width="858" height="46" rx="18" fill="#0c111b"/><rect x="1" y="28" width="858" height="20" fill="#0c111b"/>
<circle cx="22" cy="23" r="5" fill="#ff5f57"/><circle cx="40" cy="23" r="5" fill="#febc2e"/><circle cx="58" cy="23" r="5" fill="#28c840"/>
<text x="430" y="28" text-anchor="middle" font-family="ui-monospace,monospace" font-size="12" fill="#8993a6">mukund@github:~/build-mission</text>
<text x="28" y="75" font-family="ui-monospace,monospace" font-size="12" fill="#60a5fa">90-DAY BUILD MISSION</text>
<text x="28" y="94" font-family="ui-monospace,monospace" font-size="10" fill="#4e596b">3 flagship products · 9 complete applications · 18 focused experiments</text>
<text x="28" y="128" font-family="ui-monospace,monospace" font-size="11" fill="#8993a6">FLAGSHIP</text><rect x="120" y="117" width="650" height="13" rx="6" fill="#0b1018"/><rect x="120" y="117" width="0" height="13" rx="6" fill="url(#line)"><animate attributeName="width" from="0" to="215" dur="1.2s" fill="freeze"/></rect><text x="794" y="128" font-family="ui-monospace,monospace" font-size="10" fill="#60a5fa">0 / 3</text>
<text x="28" y="158" font-family="ui-monospace,monospace" font-size="11" fill="#8993a6">APPS</text><rect x="120" y="147" width="650" height="13" rx="6" fill="#0b1018"/><rect x="120" y="147" width="0" height="13" rx="6" fill="url(#line)"><animate attributeName="width" from="0" to="72" dur="1.2s" begin=".2s" fill="freeze"/></rect><text x="794" y="158" font-family="ui-monospace,monospace" font-size="10" fill="#60a5fa">0 / 9</text>
<text x="28" y="188" font-family="ui-monospace,monospace" font-size="11" fill="#8993a6">EXPERIMENTS</text><rect x="120" y="177" width="650" height="13" rx="6" fill="#0b1018"/><rect x="120" y="177" width="0" height="13" rx="6" fill="url(#line)"><animate attributeName="width" from="0" to="36" dur="1.2s" begin=".4s" fill="freeze"/></rect><text x="794" y="188" font-family="ui-monospace,monospace" font-size="10" fill="#60a5fa">0 / 18</text>
<text x="28" y="208" font-family="ui-monospace,monospace" font-size="9" fill="#4e596b">Native GitHub contribution activity continues below this profile README.</text>
</svg>