<svg xmlns="http://www.w3.org/2000/svg" width="1200" height="390" viewBox="0 0 1200 390">
<defs>
  <linearGradient id="bg" x1="0" y1="0" x2="1" y2="1"><stop stop-color="#02040b"/><stop offset=".52" stop-color="#061128"/><stop offset="1" stop-color="#02040b"/></linearGradient>
  <linearGradient id="blue" x1="0" y1="0" x2="1" y2="0"><stop stop-color="#5b8cff"/><stop offset=".5" stop-color="#9cc8ff"/><stop offset="1" stop-color="#2f6bff"/></linearGradient>
  <filter id="glow"><feGaussianBlur stdDeviation="5" result="b"/><feMerge><feMergeNode in="b"/><feMergeNode in="SourceGraphic"/></feMerge></filter>
  <pattern id="grid" width="36" height="36" patternUnits="userSpaceOnUse"><path d="M36 0H0V36" fill="none" stroke="#183259" stroke-opacity=".16" stroke-width="1"/></pattern>
  <clipPath id="panel"><rect x="14" y="14" width="1172" height="362" rx="26"/></clipPath>
</defs>
<rect width="1200" height="390" fill="#02040b"/>
<rect x="14" y="14" width="1172" height="362" rx="26" fill="url(#bg)" stroke="#23416d" stroke-width="2"/>
<g clip-path="url(#panel)"><rect x="14" y="14" width="1172" height="362" fill="url(#grid)"/>
<circle cx="1090" cy="42" r="180" fill="#2563eb" opacity=".07" filter="url(#glow)"/>
<circle cx="90" cy="352" r="130" fill="#2563eb" opacity=".06" filter="url(#glow)"/>
<g fill="#4c86ff" opacity=".45" font-family="ui-monospace,monospace" font-size="10">
<text x="36" y="52">01001101 01010101 01001011 01010101 01001110 01000100</text>
<text x="876" y="352">SYSTEM://PROFILE_BOOT_OK</text>
</g>
<g stroke="#2f6bff" stroke-opacity=".6" fill="none"><path d="M58 88H200l22 22h76"/><path d="M1032 90h90l18 18"/><path d="M988 312h118"/></g>
<g fill="#61a0ff"><circle cx="58" cy="88" r="3"/><circle cx="298" cy="110" r="3"/><circle cx="1032" cy="90" r="3"/><circle cx="1106" cy="312" r="3"/></g>
<g font-family="ui-monospace, SFMono-Regular, Menlo, Consolas, monospace" font-weight="900" text-anchor="middle">
  <text x="600" y="170" font-size="126" letter-spacing="10" fill="none" stroke="#2f6bff" stroke-width="3" opacity=".45">MUKUND</text>
  <text x="592" y="164" font-size="126" letter-spacing="10" fill="#0e1730" stroke="#8ab6ff" stroke-width="1.4" filter="url(#glow)">MUKUND</text>
  <text x="608" y="176" font-size="126" letter-spacing="10" fill="none" stroke="#244fb0" stroke-width="1" opacity=".55">MUKUND</text>
</g>
<rect x="155" y="198" width="890" height="2" fill="url(#blue)" opacity=".8"/>
<text x="600" y="242" text-anchor="middle" font-family="ui-monospace,monospace" font-size="17" font-weight="700" fill="#f3f7ff" letter-spacing="2">AI PRODUCT BUILDER · FULL-STACK DEVELOPER · FOUNDER</text>
<text x="600" y="276" text-anchor="middle" font-family="ui-monospace,monospace" font-size="14" fill="#87b4ff">BUILDING INTELLIGENT PRODUCTS, AUTOMATIONS &amp; DIGITAL EXPERIENCES</text>
<g transform="translate(560 305)" stroke="#7fb2ff" stroke-width="5" fill="none" stroke-linecap="round" stroke-linejoin="round">
<path d="M18 0L0 18l18 18M62 0l18 18-18 18M50 -4L30 40"/>
</g>
<rect x="-350" y="195" width="280" height="7" fill="url(#blue)" opacity=".45" filter="url(#glow)"><animate attributeName="x" values="-350;1270" dur="4.8s" repeatCount="indefinite"/></rect>
</g>
</svg>