<svg xmlns="http://www.w3.org/2000/svg" width="1200" height="390" viewBox="0 0 1200 390"><defs><linearGradient id="bg2" x1="0" y1="0" x2="1" y2="1"><stop stop-color="#030711"/><stop offset=".55" stop-color="#07162d"/><stop offset="1" stop-color="#02040a"/></linearGradient><linearGradient id="accent" x1="0" y1="0" x2="1" y2="0"><stop stop-color="#2f6bff"/><stop offset=".5" stop-color="#82b8ff"/><stop offset="1" stop-color="#2f6bff"/></linearGradient><filter id="g2"><feGaussianBlur stdDeviation="5" result="b"/><feMerge><feMergeNode in="b"/><feMergeNode in="SourceGraphic"/></feMerge></filter><clipPath id="photo"><rect x="830" y="28" width="340" height="334" rx="22"/></clipPath><pattern id="tiny" width="24" height="24" patternUnits="userSpaceOnUse"><circle cx="2" cy="2" r="1" fill="#3f6fa8" opacity=".18"/></pattern></defs><rect width="1200" height="390" rx="26" fill="url(#bg2)" stroke="#213a63" stroke-width="2"/><rect width="1200" height="390" rx="26" fill="url(#tiny)"/><circle cx="70" cy="28" r="5" fill="#ff6b63"/><circle cx="90" cy="28" r="5" fill="#ffd05c"/><circle cx="110" cy="28" r="5" fill="#64d66d"/><text x="600" y="33" text-anchor="middle" font-family="ui-monospace,monospace" font-size="13" fill="#83a9dc">mukund@github:~/now-building</text><path d="M30 56H1170" stroke="#142845"/><text x="54" y="98" font-family="ui-monospace,monospace" font-size="14" fill="#5e89bf">$ whoami --current-mission</text><text x="54" y="148" font-family="ui-monospace,monospace" font-size="38" font-weight="800" fill="#f6f9ff">MUKUND NAIDU</text><text x="54" y="182" font-family="ui-monospace,monospace" font-size="17" font-weight="700" fill="#65a0ff">STUDENT · FOUNDER · AI PRODUCT BUILDER</text><text x="54" y="228" font-family="ui-monospace,monospace" font-size="16" fill="#c7d9ef">Building AI-powered websites, applications, automations,</text><text x="54" y="254" font-family="ui-monospace,monospace" font-size="16" fill="#c7d9ef">intelligent agents and digital systems for modern businesses.</text><text x="54" y="300" font-family="ui-monospace,monospace" font-size="13" fill="#7ca4d4">FOCUS // AI PRODUCTS · SAAS · CREATIVE WEB · DEV TOOLS</text><rect x="54" y="322" width="610" height="8" rx="4" fill="#0d1a2c"/><rect x="54" y="322" width="0" height="8" rx="4" fill="url(#accent)" filter="url(#g2)"><animate attributeName="width" from="0" to="430" dur="1.8s" fill="freeze"/></rect><text x="54" y="352" font-family="ui-monospace,monospace" font-size="12" fill="#5e89bf">STATUS: BUILDING 30 PUBLIC PROJECTS / 90 DAYS</text><g clip-path="url(#photo)"><image href="https://raw.githubusercontent.com/codermukundnaidu/codermukundnaidu/main/portrait.jpg" x="830" y="28" width="340" height="334" preserveAspectRatio="xMidYMid slice"/><rect x="830" y="28" width="340" height="334" fill="none" stroke="#5c95ff" stroke-width="2"/><rect x="830" y="28" width="340" height="334" fill="url(#tiny)" opacity=".25"/><rect x="805" y="-60" width="60" height="520" fill="#65a0ff" opacity=".08" transform="rotate(18 805 -60)"><animate attributeName="x" values="780;1190" dur="5s" repeatCount="indefinite"/></rect></g><path d="M815 70v-22h22M1163 70v-22h-22M815 320v22h22M1163 320v22h-22" stroke="#78adff" stroke-width="3" fill="none"/><text x="1000" y="376" text-anchor="middle" font-family="ui-monospace,monospace" font-size="10" fill="#5e89bf">PORTRAIT_RENDER: ASPECT_LOCKED · NO_STRETCH</text></svg>